<?xml version="1.0" encoding="UTF-8"?>
<svg id="Layer_1" xmlns="http://www.w3.org/2000/svg" version="1.1" viewBox="0 0 768 768">
  <!-- Generator: Adobe Illustrator 29.5.0, SVG Export Plug-In . SVG Version: 2.1.0 Build 137)  -->
  <defs>
    <style>
      .st0 {
        fill: #fff;
      }

      .st1 {
        fill: #fefefd;
      }

      .st2 {
        fill: #fefdfc;
      }

      .st3 {
        fill: #fecb00;
      }

      .st4 {
        fill: #fecb01;
      }
    </style>
  </defs>
  <path class="st0" d="M768,0v768H0V0h768ZM364.35,48.22C82.6,61.28-55.52,402.87,136.11,610.51c183.02,198.3,515.39,111,575.87-151.65,51.07-221.73-123.06-421.05-347.64-410.64Z"/>
  <path class="st3" d="M364.35,48.22c224.59-10.41,398.71,188.91,347.64,410.64-60.49,262.65-392.86,349.95-575.87,151.65C-55.52,402.87,82.6,61.28,364.35,48.22ZM165.75,221.25c-1.25,88.67-1.25,178.33,0,267,1.42,11.97,14.18,26.25,26.62,26.25h160.12l-8.22,31.16c-9.62.6-19.3.37-28.94.38-5.5,0-11.88-.81-17.21-.78s-11.46,3.01-12.33,8.67c-.39,2.54-.42,11.65.11,14.04.79,3.58,4.83,6.42,8.09,7.28.46.12,1.42,1.27,2.54.8h174.17c1.1.43,2.03-.67,2.54-.8,3.68-.98,7.94-3.25,8.84-7.28.54-2.43.46-10.66.09-13.28-.53-3.75-2.91-6.44-6.15-8.1l-52.22-.66-7.57-31.43h159.38c13.37,0,27.48-17.08,26.65-30.35V223.1c-1.18-15.7-11.27-28.09-27.38-29.62l-382.52.03c-14.74,1.94-24.81,13.18-26.63,27.74Z"/>
  <path class="st1" d="M165.75,221.25c1.82-14.57,11.9-25.8,26.63-27.74l382.52-.03c16.11,1.53,26.2,13.92,27.38,29.62v261.06c.82,13.27-13.29,30.35-26.65,30.35h-159.38l7.57,31.43,52.22.66c3.23,1.67,5.62,4.35,6.15,8.1.37,2.61.45,10.85-.09,13.28-.9,4.03-5.16,6.3-8.84,7.28h-179.25c-3.27-.87-7.3-3.7-8.09-7.28-.53-2.39-.5-11.51-.11-14.04.88-5.66,7.13-8.64,12.33-8.67s11.71.79,17.21.78c9.64-.01,19.32.22,28.94-.38l8.22-31.16h-160.12c-12.44,0-25.2-14.28-26.62-26.25V221.25ZM198.6,216.97c-3.21.69-6.62.28-8.28,3.72v233.62c1.4,2.39,3.62,4.16,6.53,3.98h374.31c4.09-.02,7.31-1.94,7.13-6.37l-.6-231.22c-1.64-3.84-7.51-3.38-11.02-3.98l-368.06.26Z"/>
  <path class="st4" d="M165.75,488.25c-1.25-88.67-1.25-178.33,0-267v267Z"/>
  <path class="st4" d="M473.25,575.25c-.5.13-1.44,1.23-2.54.8h-174.17c-1.12.46-2.08-.68-2.54-.8h179.25Z"/>
  <path class="st4" d="M198.6,216.97l368.06-.26c3.51.59,9.38.13,11.02,3.98l.6,231.22c.17,4.44-3.04,6.35-7.13,6.37H196.84c-2.91.19-5.13-1.59-6.52-3.97v-233.62c1.65-3.43,5.07-3.03,8.28-3.72ZM548.74,239.51c-7.94-7.54-21.55-1.95-21.55,9.11,0,1.37.81,2.8.76,3.81-.11,2.26-6.1,6.11-7.84,7.8-12.92,12.57-25.24,25.77-38.34,38.16-4.14-2.07-6.94-1.76-11,.26-2.64,1.31-2.33,3.19-5.17,2.69-12.73-2.24-26.78-8.97-39.8-11.26-1.56-.74-2.74-5.26-4.65-7.35-5.17-5.64-13.94-4.84-18.38,1.14-3.49,4.71-1.11,8.04-2.96,11.29l-49.42,50.38c.11,4,3.96,7.07,7.82,4.76l47.58-46.95c6.83,1.88,11.19,1.19,16.21-3.96l42.54,11.81c1.67,10.14,13.59,15.83,21.13,7.55,5.15-5.66,1.85-10.06,4.07-13.93,13.13-12.02,24.74-25.91,37.9-37.85,1.07-.97,7.2-6.48,7.69-6.62,2.09-.58,5.84.76,9.24-.46,7.66-2.74,10.24-14.67,4.2-20.39ZM221.05,250.67c-4.4,1.38-5.41,3.23-5.83,7.67-2.84,30.69,2.21,65.67,0,96.81.09,4.47,2.86,6.73,7.12,7.12,29.98,2.76,64.14-2.17,94.57,0,4.58-.44,6.69-1.69,7.12-6.38,2.87-31.17-2.25-66.69,0-98.32-.09-5.48-3.84-6.71-8.63-7.12l-94.35.2ZM538.35,295.72c-2.63.11-9.16.25-11.13.87-2.15.67-3.69,3.04-3.73,5.27l-.02,127.56c.15,2.44,1.75,3.82,4.13,4.13,3.54.45,18.52.55,21.77-.06,1.87-.35,3.43-2.17,3.43-4.07l-.08-129c-1.09-6.87-9.16-4.92-14.36-4.7ZM401.03,338.41c-1.44.41-2.89,2.37-2.82,3.93l.18,88.39c.45,1.5,2.55,2.48,4.02,2.73,3.05.5,18.74.53,21.55-.12,2.33-.54,3.47-2.37,3.55-4.7l-.16-88.36c-.2-.67-.72-1.35-1.35-1.65-1.22-.59-23.11-.75-24.97-.21ZM463.68,339.18l-.78,91.55c.45,1.5,2.55,2.48,4.02,2.73,3.08.51,17.91.52,20.8-.12,1.08-.24,2.04-.92,2.84-1.66l.54-91.4c-.2-.67-.72-1.35-1.35-1.65-1.53-.75-19.18-.65-22.16-.4-1.37.11-2.75.11-3.92.96ZM362.03,432.52c.82-.67,1.64-2.74,1.75-3.87l-.43-50.64c-.5-.62-1.16-1.56-1.87-1.87-1.57-.69-24.02-.74-25.49-.02-1.1.54-1.53,1.8-1.53,2.97l.41,52.16c.52.7,1.27,1.34,2.07,1.68,2.44,1.02,18.49.94,21.94.57,1.16-.12,2.2-.21,3.14-.98Z"/>
  <path class="st2" d="M221.05,250.67l94.35-.2c4.79.41,8.54,1.63,8.63,7.12-2.25,31.63,2.87,67.15,0,98.32-.43,4.69-2.54,5.94-7.12,6.38-30.43-2.17-64.59,2.76-94.57,0-4.26-.39-7.03-2.66-7.12-7.12,2.22-31.15-2.83-66.13,0-96.81.41-4.44,1.43-6.29,5.83-7.67ZM258.38,277.5h-13.88l17.99,29.64-20.24,29.61h14.62l13.14-21,13.86,21h14.62l-19.35-29.74,18.6-29.51h-13.88c-4.82,5.23-7.31,13.74-11.75,19-.51.6-.7,1.49-1.75,1.25l-12.01-20.26Z"/>
  <path class="st1" d="M538.35,295.72c5.2-.22,13.27-2.17,14.36,4.7l.08,129c0,1.9-1.56,3.72-3.43,4.07-3.25.61-18.23.51-21.77.06-2.37-.3-3.98-1.69-4.13-4.13l.02-127.56c.04-2.24,1.58-4.6,3.73-5.27,1.97-.62,8.5-.75,11.13-.87Z"/>
  <path class="st2" d="M548.74,239.51c6.03,5.73,3.46,17.65-4.2,20.39-3.4,1.22-7.15-.12-9.24.46-.49.13-6.62,5.65-7.69,6.62-13.16,11.94-24.76,25.83-37.9,37.85-2.23,3.87,1.08,8.27-4.07,13.93-7.54,8.27-19.45,2.58-21.13-7.55l-42.54-11.81c-5.02,5.15-9.38,5.84-16.21,3.96l-47.58,46.95c-3.85,2.31-7.71-.76-7.82-4.76l49.42-50.38c1.86-3.24-.53-6.58,2.96-11.29,4.44-5.98,13.21-6.78,18.38-1.14,1.92,2.09,3.09,6.61,4.65,7.35,13.01,2.29,27.07,9.02,39.8,11.26,2.84.5,2.53-1.38,5.17-2.69,4.06-2.02,6.86-2.33,11-.26,13.1-12.39,25.42-25.59,38.34-38.16,1.74-1.69,7.72-5.54,7.84-7.8.05-1-.76-2.44-.76-3.81,0-11.06,13.62-16.65,21.55-9.11Z"/>
  <path class="st1" d="M401.03,338.41c1.86-.53,23.75-.38,24.97.21.63.31,1.15.98,1.35,1.65l.16,88.36c-.08,2.33-1.22,4.16-3.55,4.7-2.8.64-18.49.62-21.55.12-1.47-.24-3.58-1.23-4.02-2.73l-.18-88.39c-.07-1.55,1.38-3.51,2.82-3.93Z"/>
  <path class="st1" d="M463.68,339.18c1.16-.84,2.55-.85,3.92-.96,2.98-.24,20.63-.34,22.16.4.63.31,1.15.98,1.35,1.65l-.54,91.4c-.8.74-1.76,1.42-2.84,1.66-2.88.63-17.72.62-20.8.12-1.47-.24-3.58-1.23-4.02-2.73l.78-91.55Z"/>
  <path class="st2" d="M362.03,432.52c-.94.76-1.99.85-3.14.98-3.45.37-19.5.45-21.94-.57-.8-.34-1.55-.98-2.07-1.68l-.41-52.16c0-1.17.43-2.43,1.53-2.97,1.47-.72,23.91-.67,25.49.02.71.31,1.37,1.25,1.87,1.87l.43,50.64c-.11,1.13-.93,3.2-1.75,3.87Z"/>
  <path class="st4" d="M258.38,277.5l12.01,20.26c1.05.24,1.24-.65,1.75-1.25,4.44-5.27,6.93-13.77,11.75-19h13.88l-18.6,29.51,19.35,29.74h-14.62l-13.86-21-13.14,21h-14.62l20.24-29.61-17.99-29.64h13.88Z"/>
</svg>