<?xml version="1.0" encoding="UTF-8"?>
<svg id="Layer_1" xmlns="http://www.w3.org/2000/svg" version="1.1" viewBox="0 0 768 768">
  <!-- Generator: Adobe Illustrator 29.5.0, SVG Export Plug-In . SVG Version: 2.1.0 Build 137)  -->
  <defs>
    <style>
      .st0 {
        fill: #fec401;
      }

      .st1 {
        fill: #fff;
      }

      .st2 {
        fill: #f7f6f6;
      }

      .st3 {
        fill: #fec500;
      }

      .st4 {
        fill: #f7f6f7;
      }
    </style>
  </defs>
  <path class="st1" d="M768,0v768H0V0h768ZM362.1,48.97c-126.38,6.46-240.38,87.83-288.73,204.02-86.76,208.51,50.03,439.49,272.85,465.41,170.93,19.88,331.04-94.56,366.8-262.26,47.57-223.12-125.13-418.72-350.92-407.17Z"/>
  <path class="st3" d="M362.1,48.97c225.79-11.55,398.49,184.05,350.92,407.17-35.76,167.7-195.86,282.15-366.8,262.26C123.4,692.48-13.39,461.51,73.37,252.99,121.71,136.8,235.71,55.43,362.1,48.97ZM255,223.5c4.49-10.4,18.63-19.44,29.83-20.79,23.73-2.85,36.8,12.62,65.18,1.43,13.7-5.4,31.74-23.2,31.74-38.76v-13.12c-5.17,4.52-10.45,9.03-16.49,12.39-30.16,16.8-48.08-3.08-77.42,2.83-25.85,5.21-43.93,30.14-44.1,56.03h11.25ZM510.18,224.83c-1.33-1.07-1.79-13.19-2.59-15.79-1.57-5.03-11.76-3.42-15.99-3.51-3.05-.06-5.06-1.65-8.41-.21-4.43,1.91-4.39,13.35-6.56,17.43l-15.13,5.83c-4.47-.76-12.6-11.35-16.77-10.04-1.88.59-15.9,13.68-16.36,15.24-1.32,4.51,7.18,12.49,8.13,17.15l-6.39,13.8c-5.93,3.55-18.18-.33-19.69,8.06-.45,2.47-.56,18.86.2,20.45,1.44,3.01,14.15,3.92,17.47,5.41l5.3,14.65c-1.29,6.66-13,12.47-8.48,19.65,1.15,1.83,9.75,11.05,11.58,12.42.88.67,1.66,1.53,2.82,1.75,3.79.69,12.19-7.67,16.45-8.74l14.5,6.98c1.57,1.35,1.53,12.76,2.4,15.6,1.57,5.08,13.01,3.49,17.45,3.54,2.96.04,4.32,1.69,7.83-.44,3.99-2.43,3.87-12.77,6.42-16.83,3.3-1.35,6.81-2.08,10.13-3.37,1.52-.59,3.41-2.28,4.32-2.51,3.27-.81,11.81,11.83,18.16,9.24,1.25-.51,11.61-9.93,13.19-11.56.94-.97,2.23-2.23,2.49-3.59.72-3.73-7.9-12.13-8.85-16.31l6.64-14.89c1.26-1.68,13.86-2.23,16.6-3.07,5.34-1.64,3.61-11.18,3.71-15.79.07-3.11,1.88-5.41-.09-8.92-2.25-4.01-13.48-3.59-17.56-5.69-.7-4.4-5.5-11.27-6.05-14.99-.66-4.43,11.14-12.31,10.07-17.48-.28-1.33-10.9-13.16-12.6-14.44-.88-.67-1.66-1.53-2.82-1.75-3.99-.73-12.5,8.05-17.07,8.83l-14.44-6.12ZM174.75,553.5c.51.35.81,1.03,1.79.8h255.91c1.25.36,1.8-.44,2.54-.8,1.84-.88,2.77-2.06,3.04-4.09.58-4.36.57-18.95,0-23.33-.26-1.97-1.34-3.68-3.43-4.07-7.98-1.49-19.17,1.63-27.36-.77v-184.5c-2.27.13-4.52,1.77-6.5,2.87-20.14,11.12-39.42,23.9-59.71,34.8l-3.03.51c-.63-.2-2-2.15-2-2.55v-35.62l-2.79.59-50.67,29.6-4.93-.3-6.48-119.89c-.88-1.57-2.2-1.39-3.71-1.54-8.88-.87-30.3-.97-39.06.03-1.41.16-2.74.39-3.74,1.51l-8.63,138.37c-.23,1.55-1.14,2.34-2.63,2.62-4.93.94-19.45-2.43-21.2,3.55l-.18,128.07c-1.11,5.95-16.59-.39-19.11,4.89-.75,1.57-.68,25.14.04,26.99.05.14,1.72,2.18,1.84,2.26ZM568.68,376.32c-1.37-3.39-.5-12.24-3.5-14.12-2.01-1.26-15.86-2.04-18.25-.91-3,1.42-2.86,9.77-4.61,12.64l-11.82,4.68c-4.27-1.1-9.59-9.28-13.96-7.99-1.13.34-12.59,11.14-12.99,12.6-.82,2.97,6.27,9.77,6.94,13.15l-5.13,10.72c-1.08.95-10.55,1.11-12.83,1.8-4.83,1.45-1.63,13.51-3.5,17.44.35,5.86,10.87,4.74,14.8,7.34l3.74,11.58c-.56,4.15-9.64,10.31-7.7,14.48,2.71,2.13,8.58,11.01,11.42,11.87,4.39,1.33,9.95-5.27,14.22-6.44l11.51,5.45c2.13,4.35-.21,13.89,5.78,15.22,1.97.44,15.37.47,16.72-.2,2.25-1.12,2.83-11.17,4.65-13.74,3.48.43,10.11-4.47,12.54-3.54,3.26,1.25,8.1,7.35,11.62,7.13,2.29-.14,13.64-11.27,13.8-13.24l-7.22-12.01c1.68-2.32,4.5-11.28,6.39-12.08,3.46-1.46,13.11-.28,14.3-4.45-.74-4.69,2.19-12.53.35-16.54-1.56-3.42-10.98-2.72-14.3-4.83l-4.53-11.63c1.76-4.86,10.58-9.49,7.42-14.89-.97-1.66-7.34-8.43-9.02-9.72-.87-.67-1.61-1.49-2.76-1.71l-12.01,7.19-12.07-5.27Z"/>
  <path class="st4" d="M174.75,553.5c-.12-.08-1.79-2.13-1.84-2.26-.72-1.84-.78-25.42-.04-26.99,2.51-5.28,17.99,1.05,19.11-4.89l.18-128.07c1.74-5.98,16.27-2.61,21.2-3.55,1.49-.28,2.4-1.07,2.63-2.62l8.63-138.37c1.01-1.12,2.34-1.34,3.74-1.51,8.76-1,30.18-.9,39.06-.03,1.51.15,2.83-.03,3.71,1.54l6.48,119.89,4.93.3,50.67-29.6,2.79-.59v35.62c0,.4,1.38,2.34,2,2.55l3.03-.51c20.29-10.9,39.57-23.67,59.71-34.8,1.98-1.1,4.24-2.74,6.5-2.87v184.5c8.19,2.4,19.38-.72,27.36.77,2.1.39,3.18,2.09,3.43,4.07.57,4.38.58,18.96,0,23.33-.27,2.03-1.2,3.21-3.04,4.09H174.75ZM231.55,423.18c-2.08.37-4.6,1.67-5.03,3.97-.75,4.04-.64,24.12-.06,28.52.19,1.47.86,3.06,2.31,3.69,1.59.7,26.57.83,29.65.43,1.47-.19,3.06-.86,3.69-2.31.77-1.74.79-26.28.41-29.62s-1.56-4.49-4.87-4.87c-5-.58-21.36-.66-26.09.19ZM317.82,423.93c-1.17-.85-2.55-.84-3.92-.96-6.01-.5-20.62-.77-26.32,0-1.95.26-3.15,1.03-3.75,3-.94,3.09-.83,24.84-.35,28.93.39,3.32,1.58,4.49,4.88,4.88,5.8.67,19.66.6,25.56.03,3.5-.34,4.53-1.26,4.88-4.88.65-6.8.56-20.21-.02-27.08-.11-1.37-.11-2.75-.96-3.92ZM342.52,423.15c-1.92.89-2.56,2.74-2.79,4.71-.67,5.78-.68,21.26,0,27.03.24,2.08.82,3.84,2.97,4.53,2.53.82,24.72.83,28.21.37,1.47-.19,3.06-.86,3.69-2.31.7-1.6.84-27.27.43-30.4-.33-2.53-1.62-3.8-4.12-4.12-8.5-1.11-19.61.78-28.39.18Z"/>
  <path class="st2" d="M510.18,224.83l14.44,6.12c4.57-.78,13.08-9.56,17.07-8.83,1.16.21,1.93,1.08,2.82,1.75,1.7,1.28,12.32,13.1,12.6,14.44,1.08,5.17-10.73,13.05-10.07,17.48.56,3.73,5.35,10.6,6.05,14.99,4.08,2.11,15.31,1.68,17.56,5.69,1.97,3.52.16,5.81.09,8.92-.1,4.6,1.63,14.15-3.71,15.79-2.74.84-15.34,1.39-16.6,3.07l-6.64,14.89c.95,4.18,9.57,12.58,8.85,16.31-.26,1.36-1.55,2.62-2.49,3.59-1.58,1.63-11.93,11.05-13.19,11.56-6.35,2.59-14.89-10.05-18.16-9.24-.91.23-2.8,1.92-4.32,2.51-3.32,1.3-6.83,2.02-10.13,3.37-2.55,4.06-2.43,14.4-6.42,16.83-3.51,2.13-4.86.48-7.83.44-4.44-.05-15.88,1.54-17.45-3.54-.88-2.83-.84-14.24-2.4-15.6l-14.5-6.98c-4.26,1.08-12.66,9.44-16.45,8.74-1.16-.21-1.93-1.08-2.82-1.75-1.82-1.37-10.42-10.59-11.58-12.42-4.52-7.19,7.19-12.99,8.48-19.65l-5.3-14.65c-3.32-1.48-16.03-2.4-17.47-5.41-.76-1.59-.64-17.98-.2-20.45,1.51-8.39,13.76-4.51,19.69-8.06l6.39-13.8c-.95-4.66-9.46-12.64-8.13-17.15.46-1.56,14.48-14.65,16.36-15.24,4.17-1.31,12.3,9.28,16.77,10.04l15.13-5.83c2.17-4.09,2.13-15.53,6.56-17.43,3.34-1.44,5.36.15,8.41.21,4.24.09,14.43-1.53,15.99,3.51.81,2.6,1.26,14.72,2.59,15.79ZM486.6,249.97c-45.16,4.35-41.73,75.53,8.02,71.02,44.73-4.06,39.8-75.62-8.02-71.02Z"/>
  <path class="st2" d="M568.68,376.32l12.07,5.27,12.01-7.19c1.15.22,1.89,1.04,2.76,1.71,1.68,1.29,8.05,8.06,9.02,9.72,3.15,5.4-5.66,10.03-7.42,14.89l4.53,11.63c3.32,2.11,12.74,1.41,14.3,4.83,1.83,4.01-1.09,11.85-.35,16.54-1.2,4.17-10.84,2.98-14.3,4.45-1.88.8-4.71,9.76-6.39,12.08l7.22,12.01c-.16,1.98-11.52,13.1-13.8,13.24-3.52.22-8.36-5.88-11.62-7.13-2.44-.94-9.07,3.96-12.54,3.54-1.81,2.56-2.4,12.61-4.65,13.74-1.35.68-14.76.64-16.72.2-5.99-1.33-3.65-10.87-5.78-15.22l-11.51-5.45c-4.27,1.17-9.83,7.78-14.22,6.44-2.84-.86-8.71-9.74-11.42-11.87-1.94-4.16,7.14-10.33,7.7-14.48l-3.74-11.58c-3.93-2.6-14.45-1.48-14.8-7.34,1.87-3.93-1.33-15.98,3.5-17.44,2.27-.68,11.74-.84,12.83-1.8l5.13-10.72c-.67-3.38-7.76-10.18-6.94-13.15.4-1.46,11.86-12.27,12.99-12.6,4.37-1.29,9.69,6.88,13.96,7.99l11.82-4.68c1.75-2.88,1.61-11.22,4.61-12.64,2.39-1.13,16.24-.35,18.25.91,3,1.88,2.13,10.73,3.5,14.12ZM534.26,443.74c27.19,25.01,64.74-17.34,37.24-41.37-27.24-23.81-64.23,16.55-37.24,41.37Z"/>
  <path class="st2" d="M255,223.5h-11.25c.16-25.89,18.24-50.81,44.1-56.03,29.34-5.92,47.26,13.96,77.42-2.83,6.03-3.36,11.32-7.87,16.49-12.39v13.12c0,15.56-18.04,33.36-31.74,38.76-28.38,11.19-41.44-4.28-65.18-1.43-11.2,1.35-25.35,10.39-29.83,20.79Z"/>
  <path class="st0" d="M435,553.5c-.74.35-1.29,1.16-2.54.8h-255.91c-.98.23-1.29-.45-1.79-.8h260.25Z"/>
  <path class="st0" d="M231.55,423.18c4.72-.85,21.09-.77,26.09-.19,3.32.39,4.49,1.58,4.87,4.87s.36,27.88-.41,29.62c-.64,1.45-2.22,2.11-3.69,2.31-3.08.4-28.05.27-29.65-.43-1.45-.64-2.11-2.22-2.31-3.69-.58-4.4-.69-24.48.06-28.52.43-2.3,2.95-3.59,5.03-3.97Z"/>
  <path class="st0" d="M317.82,423.93c.85,1.17.84,2.55.96,3.92.58,6.87.67,20.28.02,27.08-.35,3.61-1.37,4.54-4.88,4.88-5.9.57-19.76.64-25.56-.03-3.29-.38-4.49-1.56-4.88-4.88-.47-4.08-.59-25.84.35-28.93.6-1.97,1.79-2.74,3.75-3,5.7-.77,20.31-.5,26.32,0,1.37.11,2.75.11,3.92.96Z"/>
  <path class="st0" d="M342.52,423.15c8.79.6,19.9-1.3,28.39-.18,2.5.33,3.79,1.59,4.12,4.12.41,3.12.27,28.8-.43,30.4-.64,1.45-2.22,2.11-3.69,2.31-3.49.46-25.68.45-28.21-.37-2.15-.69-2.73-2.45-2.97-4.53-.68-5.77-.67-21.26,0-27.03.23-1.97.87-3.83,2.79-4.71Z"/>
  <path class="st0" d="M486.6,249.97c47.81-4.61,52.75,66.96,8.02,71.02-49.75,4.51-53.18-66.66-8.02-71.02Z"/>
  <path class="st0" d="M534.26,443.74c-26.98-24.82,10-65.18,37.24-41.37,27.5,24.03-10.05,66.38-37.24,41.37Z"/>
</svg>