<?xml version="1.0" encoding="UTF-8"?>
<svg id="Layer_1" xmlns="http://www.w3.org/2000/svg" version="1.1" viewBox="0 0 768 768">
  <!-- Generator: Adobe Illustrator 29.5.0, SVG Export Plug-In . SVG Version: 2.1.0 Build 137)  -->
  <defs>
    <style>
      .st0 {
        fill: #fec702;
      }

      .st1 {
        fill: #fff;
      }

      .st2 {
        fill: #fec700;
      }

      .st3 {
        fill: #fefdfd;
      }

      .st4 {
        fill: #fefefe;
      }
    </style>
  </defs>
  <path class="st1" d="M768,0v768H0V0h768ZM371.85,48.22c-138.03,5.49-259.15,91.54-305.11,222.14-73.59,209.1,73.46,430.71,292.9,446.63,213.89,15.52,386.03-169.05,358.01-381.26-22.37-169.46-175.63-294.28-345.8-287.51Z"/>
  <path class="st2" d="M371.85,48.22c170.16-6.77,323.43,118.05,345.8,287.51,28.02,212.21-144.12,396.78-358.01,381.26C140.19,701.07-6.86,479.46,66.74,270.36,112.7,139.76,233.82,53.71,371.85,48.22ZM149.05,237.93c-4.09.74-6.61,4.27-6.58,8.42v167.31c-.04,5.05,3.56,8.66,8.62,8.62h291.07c4.87-.09,8.52-3.7,8.62-8.62v-167.33c-.25-5.26-3.95-9.04-9.38-8.62l-292.35.21ZM466.5,283.88v158.62h-168.38c-.69,0-1.24,1.44-.99,2.46.39,1.54,6.79,9.81,8.24,12.78,2.4,4.92,4.56,11.47,5.66,16.84.78,3.81-.32,11.13,3.75,12l150.59.18c.97-.09,2.14-.24,2.94-.81,1.74-1.24,2.78-11.9,3.64-15.11,12.97-48.5,79.29-56.89,105.39-14.32,5.67,9.26,7.76,18.67,9.33,29.3,1.49.6,3.06.84,4.66.96,7.19.55,29.59.85,35.66-1.14,2.81-.92,5.8-3.8,7.03-6.47,2-4.31,2.01-22.3-.41-26.43-1.06-1.82-4.51-4.75-6.46-5.54s-5.59-.69-6.08-2.17l-.07-59.18c-.86-9.99-12.62-27.51-17.9-36.85-9.54-16.9-19.66-35.48-30-51.75-7.41-11.66-14.26-18.62-28.98-19.77-22.19-1.73-46.6,1.35-69.03.02-3.59.27-7.94,2.54-8.62,6.38ZM243.58,439.71c-55.86,6.7-51.48,94.85,8.83,93.58,62.77-1.32,59.67-101.8-8.83-93.58ZM520.33,439.71c-54.01,6.15-51.81,90.2,3.55,93.53,68.31,4.11,67.82-101.66-3.55-93.53ZM156.98,444.98c-1.45,1.64-2.32,6.13-2.51,8.37-.51,5.95-.55,17.37.04,23.27.33,3.29,1.43,7.33,4.69,8.81,4.02,1.82,21.53,1.89,26.44,1.34,1.06-.12,2.65-.35,3.38-1.12.64-.66,2.17-11.48,2.73-13.77,1.36-5.47,3.64-11.33,6.11-16.39,1.65-3.39,9.73-12.27,3.55-13.03-7.79-.95-31.26-.93-39.06.02-1.57.19-4.39,1.39-5.37,2.5Z"/>
  <path class="st4" d="M149.05,237.93l292.35-.21c5.44-.43,9.13,3.36,9.38,8.62v167.33c-.11,4.91-3.75,8.53-8.62,8.62H151.1c-5.07.03-8.66-3.58-8.62-8.63v-167.31c-.03-4.15,2.49-7.67,6.58-8.42Z"/>
  <path class="st3" d="M466.5,283.88c.68-3.83,5.03-6.11,8.62-6.38,22.43,1.33,46.84-1.76,69.03-.02,14.71,1.15,21.57,8.11,28.98,19.77,10.34,16.27,20.46,34.85,30,51.75,5.27,9.35,17.04,26.86,17.9,36.85l.07,59.18c.5,1.47,4.23,1.41,6.08,2.17s5.39,3.73,6.46,5.54c2.42,4.13,2.41,22.12.41,26.43-1.24,2.67-4.22,5.54-7.03,6.47-6.07,1.99-28.47,1.69-35.66,1.14-1.6-.12-3.18-.36-4.66-.96-1.57-10.63-3.66-20.04-9.33-29.3-26.09-42.58-92.42-34.18-105.39,14.32-.86,3.21-1.9,13.87-3.64,15.11-.8.57-1.96.72-2.94.81l-150.59-.18c-4.06-.88-2.96-8.19-3.75-12-1.1-5.36-3.27-11.92-5.66-16.84-1.45-2.98-7.86-11.25-8.24-12.78-.26-1.02.29-2.46.99-2.46h168.38v-158.62ZM497.8,298.68c-3.35.66-5.42,2.73-5.82,6.18-1.92,16.42,1.48,36.47,0,53.28.49,4.11,3.1,6.03,7.11,6.39,23.83,2.17,50.9-1.74,75.08.01,6.9-1.14,7.84-5.46,5.22-11.32-6.03-13.48-17.75-33.55-25.76-46.23-2.8-4.43-4.36-7.82-10.25-8.5-14.05-1.6-31.2,1.05-45.57.18Z"/>
  <path class="st3" d="M520.33,439.71c71.38-8.12,71.86,97.64,3.55,93.53-55.37-3.33-57.56-87.39-3.55-93.53ZM525.58,464.47c-28.21,3.19-23.69,45.46,4.28,43.28s24.13-46.49-4.28-43.28Z"/>
  <path class="st3" d="M243.58,439.71c68.5-8.22,71.6,92.25,8.83,93.58-60.31,1.27-64.69-86.87-8.83-93.58ZM248.83,464.44c-31.07,3.66-21.82,52.18,9.15,42.17,25.27-8.17,15.22-45.04-9.15-42.17Z"/>
  <path class="st3" d="M156.98,444.98c.98-1.11,3.8-2.31,5.37-2.5,7.8-.95,31.27-.96,39.06-.02,6.18.75-1.89,9.63-3.55,13.03-2.47,5.06-4.75,10.92-6.11,16.39-.57,2.29-2.1,13.11-2.73,13.77-.74.76-2.33,1-3.38,1.12-4.9.55-22.41.48-26.44-1.34-3.26-1.48-4.36-5.52-4.69-8.81-.59-5.89-.55-17.32-.04-23.27.19-2.24,1.06-6.73,2.51-8.37Z"/>
  <path class="st2" d="M497.8,298.68c14.38.87,31.52-1.78,45.57-.18,5.89.67,7.45,4.06,10.25,8.5,8.01,12.68,19.73,32.75,25.76,46.23,2.62,5.86,1.68,10.18-5.22,11.32-24.18-1.75-51.25,2.16-75.08-.01-4-.36-6.62-2.29-7.11-6.39,1.48-16.82-1.92-36.86,0-53.28.4-3.45,2.47-5.52,5.82-6.18Z"/>
  <path class="st0" d="M525.58,464.47c28.42-3.21,33,41.04,4.28,43.28s-32.5-40.09-4.28-43.28Z"/>
  <path class="st0" d="M248.83,464.44c24.38-2.87,34.42,34,9.15,42.17-30.98,10.01-40.23-38.51-9.15-42.17Z"/>
</svg>