<?xml version="1.0" encoding="UTF-8"?>
<svg id="Layer_1" xmlns="http://www.w3.org/2000/svg" version="1.1" viewBox="0 0 553 269">
  <!-- Generator: Adobe Illustrator 29.5.1, SVG Export Plug-In . SVG Version: 2.1.0 Build 141)  -->
  <defs>
    <style>
      .st0 {
        fill: #ddfbfb;
      }
    </style>
  </defs>
  <polygon class="st0" points="285.62 161.1 297.62 210.6 312.36 161.58 321.89 161.06 337.13 211.6 350.12 161.1 360.62 161.1 343.1 229.07 332.64 229.07 317.38 177.59 302.88 228.61 293.35 229.13 275.12 161.1 285.62 161.1"/>
  <path class="st0" d="M76.29,208.91c-.68-.29-2.37-1.81-3.04-2.32-29.99-22.79,4.37-63.11,31.11-41.99,23.77,18.78,1.72,57.04-28.07,44.3Z"/>
  <path class="st0" d="M216.41,149.3c-20.09-30.12,28.45-58.13,45.12-26.37,15.14,28.85-26.53,54.22-45.12,26.37Z"/>
  <path class="st0" d="M74.83,107.88c-28.68-16.4-4.66-62.12,25.63-45.86,30.99,16.64,4.69,63.2-25.63,45.86Z"/>
  <path class="st0" d="M16.32,120.29c11.15-15.96,36.11-14.74,44.99,2.87,11.13,22.08-11.15,45.52-33.86,35.86-14.76-6.28-20.31-25.58-11.13-38.74Z"/>
  <path class="st0" d="M206.95,166.77c23.03,23.01-10,59.66-35.33,38.58-27.89-23.2,9.69-64.2,35.33-38.58Z"/>
  <path class="st0" d="M135.52,209.24c36.11-3.55,38.32,51.75,3.33,52.37-32.96.58-36.3-49.13-3.33-52.37Z"/>
  <path class="st0" d="M133.5,9.23c40.08-5.42,40.29,55.3,1.88,51.86-30.44-2.72-30.24-48.03-1.88-51.86Z"/>
  <path class="st0" d="M184,59.22c23.25-2.95,38.87,21.61,25.53,41.03s-45.06,11.12-47.35-12.47c-1.28-13.22,8.37-26.86,21.82-28.56Z"/>
  <polygon class="st0" points="293.12 49.6 293.12 77.6 325.12 77.6 325.12 49.6 335.12 49.6 335.12 117.6 325.12 117.6 325.12 86.6 293.87 86.6 293.12 87.35 293.12 117.6 283.12 117.6 283.12 49.6 293.12 49.6"/>
  <path class="st0" d="M472.62,157.1v42.5c6.11-7.13,12.74-13.77,19.28-20.49.57-.58.63-1.51.72-1.51h11l-19.51,22.24,21.01,29.26h-11.5l-15.72-22.03c-.86-1.78-5.28,2.94-5.28,3.28v18.75h-10v-72h10Z"/>
  <path class="st0" d="M370.02,65.24c32.39-1.36,33.42,46.87,8.11,52.62-37.12,8.43-41.29-51.23-8.11-52.62ZM368.5,74.23c-14.01,2.04-13.49,30.86-2.16,34.9,10.23,3.65,17.66-2.67,18.72-12.84,1.25-11.99-1.99-24.18-16.56-22.06Z"/>
  <path class="st0" d="M388.03,176.73c31.63-1.14,33.01,46.86,7.61,52.63-36.95,8.4-41.54-51.41-7.61-52.63ZM398.44,188.77c-5.64-5.66-17.32-4.12-20.91,3.48-5.58,11.81-.98,34.21,16.49,28.49,10.62-3.48,11.2-25.17,4.42-31.97Z"/>
  <path class="st0" d="M509.12,217.6c6.58,2.48,19.52,6.92,25.51,1.76,5.81-5-1.03-9.12-5.34-11.19-7.25-3.5-18.65-5.27-20.05-14.95-2.71-18.78,24.31-18.65,35.82-13.07l-2.51,7.89c-6.33-.84-11.91-3.79-18.55-2.3-6.11,1.37-7.07,6.01-1.74,9.46,8.3,5.37,24.6,5.92,24.39,19.65-.26,17.29-26.39,18.15-37.54,11.5v-8.75Z"/>
  <path class="st0" d="M400.87,74.6c-1.16-.36-.87-4.42-.52-5.52l8.54-2.96c.54-2.2.05-4.48.29-6.71,1.51-14.17,15.4-16.8,26.97-12.51.28,1.01-1.33,7.01-2.01,7.47-2.27,1.53-9.55-3.82-13.52,1.98-1.84,2.68-1.47,6.61-1.5,9.75h12.5c-.36,2.68.85,6.31-.75,8.5h-11.75v43h-10v-43h-8.25Z"/>
  <path class="st0" d="M449.62,66.1h14v8.5h-14v30.25c0,.45,1.27,2.78,1.72,3.28,3.33,3.62,8.68,1.07,12.78.97v8c-2.44.38-4.73,1.35-7.23,1.52-25.54,1.67-15.84-28.23-17.77-44.02l-6.53-.22c-3.24-7.55,4.31-5.94,6.76-8.8,1.51-1.76,2.59-9.98,3.75-10.75,1.97-.24,5-.84,6.52.52v10.75Z"/>
  <path class="st0" d="M432.62,177.6l1.01,7c5.62-6.28,13.26-9.95,21.53-6.67l-1.03,8.67c-2.79-.03-5.35-.84-8.21-.46-6.48.86-11.79,8.47-11.79,14.71v28.25h-10v-51.5h8.5Z"/>
  <path class="st0" d="M128.8,91.27c10.66-11.22,29.5,3.44,19.82,16.57-10.93,14.81-32.04-3.7-19.82-16.57Z"/>
  <path class="st0" d="M184.94,144.42c-12.05,11.44-29.78-6.32-18.34-18.09,12.35-12.72,30.45,6.6,18.34,18.09Z"/>
  <path class="st0" d="M97.49,124.71c19.73-3.33,20.41,24.95,3.33,25.33-15.9.36-17.52-22.94-3.33-25.33Z"/>
  <path class="st0" d="M134.99,122.71c17.65-2.97,21.78,20.28,6.74,24.74-11.05,3.28-20.44-9.12-14.54-19.03,1.33-2.23,5.19-5.27,7.8-5.7Z"/>
  <path class="st0" d="M137.54,159.22c18.44-.93,17.53,28.58-2.05,25.26-13.89-2.36-13.1-24.5,2.05-25.26Z"/>
</svg>